<svg viewBox="0 0 24 17" fill="red" class="h-10 w-auto" xmlns="http://www.w3.org/2000/svg">
<g clip-path="url(#clip0_33_20)">
<rect width="24" height="16.86" fill="white"/>
<path d="M12.0765 0H12.21C13.443 0.0045 19.6905 0.0495003 21.375 0.5025C21.8842 0.640753 22.3483 0.910234 22.7207 1.28401C23.0932 1.65779 23.361 2.12278 23.4975 2.6325C23.649 3.2025 23.7555 3.957 23.8275 4.7355L23.8425 4.8915L23.8755 5.2815L23.8875 5.4375C23.985 6.8085 23.997 8.0925 23.9985 8.373V8.4855C23.997 8.7765 23.9835 10.1475 23.8755 11.5755L23.8635 11.733L23.85 11.889C23.775 12.747 23.664 13.599 23.4975 14.226C23.3615 14.7359 23.0938 15.2011 22.7212 15.575C22.3487 15.9488 21.8844 16.2182 21.375 16.356C19.635 16.824 13.0215 16.857 12.105 16.8585H11.892C11.4285 16.8585 9.5115 16.8495 7.5015 16.7805L7.2465 16.7715L7.116 16.7655L6.8595 16.755L6.603 16.7445C4.938 16.671 3.3525 16.5525 2.622 16.3545C2.11273 16.2168 1.6486 15.9477 1.27609 15.5741C0.903575 15.2005 0.63577 14.7357 0.4995 14.226C0.333 13.6005 0.222 12.747 0.147 11.889L0.135 11.7315L0.123 11.5755C0.0489714 10.5591 0.0079498 9.54056 0 8.5215L0 8.337C0.003 8.0145 0.015 6.9 0.096 5.67L0.1065 5.5155L0.111 5.4375L0.123 5.2815L0.156 4.8915L0.171 4.7355C0.243 3.957 0.3495 3.201 0.501 2.6325C0.63704 2.12257 0.904743 1.65737 1.27727 1.28352C1.6498 0.909681 2.11405 0.640339 2.6235 0.5025C3.354 0.3075 4.9395 0.1875 6.6045 0.1125L6.8595 0.102L7.1175 0.0930002L7.2465 0.0885002L7.503 0.0780003C8.93056 0.0320621 10.3587 0.0065593 11.787 0.00150007H12.0765V0ZM9.6 4.815V12.042L15.8355 8.43L9.6 4.815Z" fill="black"/>
</g>
<defs>
<clipPath id="clip0_33_20">
<rect width="24" height="16.86" fill="white"/>
</clipPath>
</defs>
</svg>
