<svg width="18" height="24" viewBox="0 0 18 24" fill="none" xmlns="http://www.w3.org/2000/svg">
<g clip-path="url(#clip0_2_4)">
<path d="M8.02788 24.0005C7.57027 23.9121 7.10562 23.876 6.64895 23.7712C3.36347 23.0195 0.719305 20.2682 0.152698 16.9508C-0.320415 14.1788 0.311498 11.6568 1.96105 9.38331C2.68364 8.38729 3.53637 7.50402 4.36749 6.60477C5.05108 5.86339 5.71823 5.10933 6.23409 4.23639C6.94823 3.02801 7.20522 1.73317 6.96279 0.343905C6.94353 0.235376 6.89044 0.103825 7.02387 0.0248947C7.14649 -0.047928 7.23059 0.0573123 7.31563 0.114631C9.07747 1.29577 10.3855 2.82175 10.9539 4.91012C11.2695 6.05163 11.2883 7.25482 11.0084 8.40561C10.9095 8.83116 10.8499 9.26491 10.8304 9.70138C10.7834 10.6241 11.6131 11.4797 12.3188 11.6746C12.7461 11.7954 13.2009 11.7756 13.6163 11.6184C14.0316 11.4612 14.3854 11.1747 14.6256 10.8012C14.8716 10.4171 14.99 9.96509 14.9639 9.50969C14.9601 9.4317 14.9564 9.35371 14.9517 9.27478C14.946 9.18458 14.9554 9.09907 15.0522 9.0596C15.149 9.02014 15.2129 9.08591 15.2674 9.15357C15.5423 9.50367 15.7878 9.87595 16.0013 10.2666C16.9541 12.0204 17.3905 13.8955 17.2496 15.8829C16.9827 19.6753 14.0961 23.2238 9.92691 23.9032C9.73146 23.9352 9.52662 23.9168 9.3401 24.0028L8.02788 24.0005Z" fill="#F55A18"/>
<path d="M7.96876 9.27689C7.94897 10.5729 7.92565 11.8712 8.45153 13.09C8.71603 13.7113 9.11503 14.2591 9.61674 14.6899C10.1185 15.1206 10.709 15.4223 11.3414 15.5711C11.9738 15.7198 12.6305 15.7114 13.2592 15.5465C13.8879 15.3816 14.4713 15.0648 14.9628 14.6214C15.3339 14.291 15.4414 14.3178 15.6082 14.7824C17.0791 18.865 14.3691 23.4954 10.2363 23.9594C6.66042 24.3602 3.44505 21.7525 3.02661 18.0173C2.74953 15.5366 3.36589 13.2533 4.72653 11.1964C5.54222 9.96499 6.51199 8.87754 7.5383 7.84204C7.63867 7.74035 7.73834 7.61935 7.90373 7.70843C8.06913 7.7975 8.0451 7.94374 8.03309 8.09516C8.00623 8.48858 7.98855 8.88273 7.96876 9.27689Z" fill="#FE9E45"/>
<path d="M7.11307 14.3368C7.34137 15.0975 7.56771 15.8602 8.14674 16.4592C8.43952 16.7653 8.8086 16.9998 9.22459 17.1441C9.64058 17.2883 10.092 17.3382 10.5428 17.2899C10.9937 17.2416 11.4316 17.0964 11.8215 16.8658C12.2115 16.6353 12.5428 16.3257 12.7891 15.9619C12.9759 15.6898 13.0527 15.6824 13.251 15.918C14.996 17.9866 14.0456 21.2682 11.3666 22.422C9.0486 23.42 6.41109 22.5849 5.43499 20.4942C4.78726 19.1055 4.77417 17.6411 5.30131 16.1499C5.61761 15.2568 6.06386 14.4149 6.55763 13.5913C6.60584 13.5105 6.64998 13.4185 6.77726 13.4352C6.90453 13.4519 6.9157 13.5423 6.93588 13.6333C6.99123 13.8687 7.05286 14.1025 7.11307 14.3368Z" fill="#FFF7B0"/>
</g>
<defs>
<clipPath id="clip0_2_4">
<rect width="17.2749" height="24" fill="white"/>
</clipPath>
</defs>
</svg>
