<svg width="24" height="24" viewBox="0 0 24 24" fill="none" xmlns="http://www.w3.org/2000/svg">
    <g clip-path="url(#clip0_33_23)">
        <path d="M12 0C9.62663 0 7.30655 0.703788 5.33316 2.02236C3.35977 3.34094 1.8217 5.21508 0.913451 7.4078C0.00519943 9.60051 -0.232441 12.0133 0.230582 14.3411C0.693605 16.6689 1.83649 18.807 3.51472 20.4853C5.19295 22.1635 7.33115 23.3064 9.65892 23.7694C11.9867 24.2324 14.3995 23.9948 16.5922 23.0866C18.7849 22.1783 20.6591 20.6402 21.9776 18.6668C23.2962 16.6934 24 14.3734 24 12C23.9971 8.8183 22.7318 5.76777 20.482 3.51797C18.2322 1.26817 15.1817 0.00294193 12 0ZM21.2333 10.6667H17.7222C17.5344 8.00643 16.6575 5.44087 15.1778 3.22222C16.7653 3.80063 18.1666 4.79816 19.2328 6.10889C20.2989 7.41962 20.9903 8.99463 21.2333 10.6667V10.6667ZM8.95556 13.3333H15.0444C14.7778 16.0778 13.6889 18.6333 12 20.5111C10.3111 18.6333 9.22223 16.0778 8.95556 13.3333V13.3333ZM8.95556 10.6667C9.22223 7.92222 10.3111 5.36667 12 3.48889C13.6889 5.36667 14.7778 7.92222 15.0444 10.6667H8.95556ZM8.82223 3.22222C7.34246 5.44087 6.46558 8.00643 6.27778 10.6667H2.76667C3.00973 8.99463 3.70106 7.41962 4.76725 6.10889C5.83345 4.79816 7.2347 3.80063 8.82223 3.22222V3.22222ZM2.76667 13.3333H6.27778C6.46558 15.9936 7.34246 18.5591 8.82223 20.7778C7.23341 20.2015 5.83091 19.2045 4.7644 17.8934C3.6979 16.5823 3.00742 15.0062 2.76667 13.3333V13.3333ZM15.1778 20.7778C16.6575 18.5591 17.5344 15.9936 17.7222 13.3333H21.2333C20.9926 15.0062 20.3021 16.5823 19.2356 17.8934C18.1691 19.2045 16.7666 20.2015 15.1778 20.7778V20.7778Z" fill="#333333" />
    </g>
    <defs>
        <clipPath id="clip0_33_23">
            <rect width="24" height="24" fill="white" />
        </clipPath>
    </defs>
</svg>