<svg width="24" height="16" viewBox="0 0 24 16" fill="#FF0000" xmlns="http://www.w3.org/2000/svg">
<g clip-path="url(#clip0_32_15)">
<rect width="24" height="16" fill="white"/>
<path d="M9.6 11.4286L15.828 8L9.6 4.57143V11.4286ZM23.472 2.48C23.628 3.01714 23.736 3.73714 23.808 4.65143C23.892 5.56571 23.928 6.35429 23.928 7.04L24 8C24 10.5029 23.808 12.3429 23.472 13.52C23.172 14.5486 22.476 15.2114 21.396 15.4971C20.832 15.6457 19.8 15.7486 18.216 15.8171C16.656 15.8971 15.228 15.9314 13.908 15.9314L12 16C6.972 16 3.84 15.8171 2.604 15.4971C1.524 15.2114 0.828 14.5486 0.528 13.52C0.372 12.9829 0.264 12.2629 0.192 11.3486C0.108 10.4343 0.0719999 9.64571 0.0719999 8.96L0 8C0 5.49714 0.192 3.65714 0.528 2.48C0.828 1.45143 1.524 0.788572 2.604 0.502857C3.168 0.354286 4.2 0.251428 5.784 0.182857C7.344 0.102857 8.772 0.0685714 10.092 0.0685714L12 0C17.028 0 20.16 0.182857 21.396 0.502857C22.476 0.788572 23.172 1.45143 23.472 2.48V2.48Z" fill="#FF0000"/>
</g>
<defs>
<clipPath id="clip0_32_15">
<rect width="24" height="16" fill="white"/>
</clipPath>
</defs>
</svg>
