<svg id="Layer_1" data-name="Layer 1" xmlns="http://www.w3.org/2000/svg" viewBox="0 0 99 22.57"><defs><style>.cls-1{fill:#f36c21;}.cls-2{fill:#58595b;}.cls-3{fill:none;}.cls-4{fill:#27aae1;}.cls-5{fill:#231f20;}</style></defs><path class="cls-1" d="M57,22.42C77.39,2,99,.23,99,.11,94.16.21,71.26,4,57,22.42Z"/><path class="cls-1" d="M1,9.68H2.6l-.28,1.59L4,9.68H5.91L3.79,11.54l1.45,3.07H3.31l-.84-2L2,13l-.28,1.57H.12Z"/><path class="cls-1" d="M8,9.68H9.64l.9,4.93H8.93L8.85,14H7.24L7,14.61H5.38Zm-.27,3.25h1l-.2-1.76Z"/><path class="cls-1" d="M11.48,9.68H13.3l.54,1.67L15,9.68h1.77l-2.37,3.11-.32,1.82H12.45l.31-1.79Z"/><path class="cls-1" d="M18.61,9.68h1.64l.9,4.93H19.54L19.46,14H17.85l-.29.66H16Zm-.27,3.25h1l-.2-1.76Z"/><path class="cls-1" d="M22.58,9.68H24.2l-.29,1.59,1.7-1.59h1.9l-2.13,1.86,1.46,3.07H24.9l-.84-2-.45.39-.28,1.57H21.72Z"/><path class="cls-2" d="M30.46,9.68h2.12a4.29,4.29,0,0,1,.65.05,2.67,2.67,0,0,1,.54.13,1.51,1.51,0,0,1,.78.57,1.73,1.73,0,0,1,.29,1l0,.32,0,.26a3.63,3.63,0,0,1-.59,1.5,2.32,2.32,0,0,1-1,.82,3.89,3.89,0,0,1-1.44.26H29.59Zm1.41,1.15-.46,2.63h.36c.77,0,1.23-.46,1.39-1.37a2.88,2.88,0,0,0,0-.47A.71.71,0,0,0,33,11a1.38,1.38,0,0,0-.81-.18Z"/><path class="cls-2" d="M35.86,9.68h1.61l-.86,4.93H35Z"/><path class="cls-2" d="M40.77,11.11q0-.42-.6-.42c-.31,0-.49.09-.53.27a.26.26,0,0,0,.11.27,1.44,1.44,0,0,0,.41.19l.53.13a2.84,2.84,0,0,1,1.06.45.94.94,0,0,1,.37.77l0,.29a1.72,1.72,0,0,1-.9,1.28,3.46,3.46,0,0,1-1.69.4,2.18,2.18,0,0,1-1.44-.45,1.33,1.33,0,0,1-.47-1v-.17h1.55a.43.43,0,0,0,.21.41.9.9,0,0,0,.46.12q.59,0,.69-.33v-.09a.26.26,0,0,0-.17-.23,3.67,3.67,0,0,0-.7-.24,3.93,3.93,0,0,1-1.19-.46,1,1,0,0,1-.42-.85l0-.19,0-.17a1.63,1.63,0,0,1,.39-.76,1.89,1.89,0,0,1,.83-.53,3.32,3.32,0,0,1,1.18-.2,2.26,2.26,0,0,1,1.34.37,1.32,1.32,0,0,1,.49,1.18Z"/><path class="cls-2" d="M43.13,9.68h4.51L47.41,11H46l-.63,3.63H43.71L44.35,11H42.91Z"/><path class="cls-2" d="M48.27,9.68h2.39a2.84,2.84,0,0,1,1.47.27.89.89,0,0,1,.42.79,1.81,1.81,0,0,1-.27,1,1.3,1.3,0,0,1-.8.56,1.38,1.38,0,0,1,.52.3.74.74,0,0,1,.14.52c0,.12,0,.28,0,.49L52,14l-.06.33c0,.1.06.15.14.15l0,.15H50.46v-.18c0-.13,0-.29,0-.5l.06-.55c0-.23-.07-.36-.21-.42a2.79,2.79,0,0,0-.78-.07h-.23L49,14.61H47.41Zm1.42,1.15-.18,1h.68c.49,0,.76-.16.8-.48a.35.35,0,0,0,0-.25.36.36,0,0,0-.2-.18.59.59,0,0,0-.29-.07Z"/><path class="cls-2" d="M53.7,9.68h1.61l-.87,4.93H52.83Z"/><path class="cls-2" d="M56.31,9.68H58.7c1.17,0,1.75.34,1.75,1l0,.22a1.19,1.19,0,0,1-.28.6,1.79,1.79,0,0,1-.56.48.79.79,0,0,1,.48.33.92.92,0,0,1,.17.57V13l0,.15a1.61,1.61,0,0,1-.75,1.12,3.31,3.31,0,0,1-1.6.34H55.44Zm1.11,2.87-.16.91H58a1,1,0,0,0,.53-.13.46.46,0,0,0,.21-.42.28.28,0,0,0-.17-.29l-.25,0-.39,0Zm.3-1.72-.14.83h.66a.68.68,0,0,0,.45-.15.48.48,0,0,0,.18-.4c0-.19-.17-.28-.52-.28Z"/><path class="cls-2" d="M61.6,9.68h1.62l-.53,3a.53.53,0,0,1,0,.15l0,.18c0,.37.21.55.62.55a.81.81,0,0,0,.62-.22,1.2,1.2,0,0,0,.3-.66l.52-3h1.62l-.5,2.8a2.63,2.63,0,0,1-.9,1.72,2.94,2.94,0,0,1-1.86.54,2.61,2.61,0,0,1-1.52-.37A1.43,1.43,0,0,1,61,13.14V13a1.54,1.54,0,0,1,0-.19l0-.15a1.06,1.06,0,0,0,0-.14Z"/><path class="cls-2" d="M67,9.68h4.5L71.3,11H69.84l-.63,3.63H67.59L68.23,11H66.79Z"/><path class="cls-2" d="M72.27,9.68h1.61L73,14.61H71.41Z"/><path class="cls-2" d="M77.28,9.56a2.13,2.13,0,0,1,1.62.57,2.28,2.28,0,0,1,.4.66,2.36,2.36,0,0,1,.1.38,3.19,3.19,0,0,1,0,.45v.26l0,.21a3.35,3.35,0,0,1-.5,1.3,3,3,0,0,1-2.55,1.35,2.11,2.11,0,0,1-1.64-.58,2,2,0,0,1-.54-1.44l0-.19,0-.23,0-.2a3.35,3.35,0,0,1,.51-1.26,2.78,2.78,0,0,1,1-.91A3,3,0,0,1,77.28,9.56Zm-.23,1.2c-.7,0-1.11.61-1.24,1.83,0,.64.25.95.76.95A1,1,0,0,0,77.5,13a2.58,2.58,0,0,0,.32-1.25,1.19,1.19,0,0,0-.18-.7A.69.69,0,0,0,77.05,10.76Z"/><path class="cls-3" d="M81.5,13l-.2,1.13,1.1-.64-.77-1.61Z"/><path class="cls-1" d="M81.3,14.17l-.08.44h-.7A64.41,64.41,0,0,1,65.4,21a52.07,52.07,0,0,0,17.29-6.84l-.29-.6Z"/><path class="cls-4" d="M94.3,5.33l-.22.23C94.24,5.42,94.32,5.34,94.3,5.33Z"/><path class="cls-1" d="M81,7.65c-7,.3-9.34,5.93-6.54,7.14C72.64,9.79,81,7.65,81,7.65Z"/><path class="cls-2" d="M82.92,14.61h1.51l.3-1.75c-.65.42-1.34.85-2,1.27Z"/><path class="cls-2" d="M81.5,12.88l.13-1.12.77,1.61c.86-.5,1.69-1,2.48-1.5l.41-2.35H83.76l-.28,1.59-.14,1.1L82.06,9.52H80.54l-.87,4.93h.85L81.3,14Z"/><path class="cls-2" d="M81.3,14l-.78.44h.7Z"/><path class="cls-5" d="M79.24,16.26h.61l-.27,1.53H79Zm.11-.63H80l-.07.43h-.61Z"/><path class="cls-5" d="M80.17,16.25h.55l0,.25a.76.76,0,0,1,.57-.29.57.57,0,0,1,.36.11.43.43,0,0,1,.13.36,1.09,1.09,0,0,1,0,.18l-.17.93H81L81.1,17v-.1c0-.12,0-.18-.17-.18a.21.21,0,0,0-.18.07.48.48,0,0,0-.11.24l-.13.79H79.9Z"/><path class="cls-5" d="M83.06,16.84v0a.18.18,0,0,0,0-.13.17.17,0,0,0-.14-.06.27.27,0,0,0-.26.15,1.66,1.66,0,0,0-.1.4c0,.17.08.25.22.25s.22-.07.27-.23h.61a.81.81,0,0,1-.34.48,1.21,1.21,0,0,1-.62.16.78.78,0,0,1-.55-.18.59.59,0,0,1-.2-.45V17a1,1,0,0,1,.32-.59,1,1,0,0,1,.71-.24.86.86,0,0,1,.55.17.47.47,0,0,1,.17.38v.08Z"/><path class="cls-5" d="M83.94,17.18h.62l-.11.61h-.62Z"/><path class="cls-2" d="M94.3,5.33c-3.17,3.43-9.76,7.75-11.61,8.8l-.29-.6A91.67,91.67,0,0,0,94.3,5.33Z"/></svg>