<svg class="h-8 fill-red-500" viewBox="0 0 24 24" fill="none" xmlns="http://www.w3.org/2000/svg">
    <g clip-path="url(#clip0_42_6)">
        <path fill-rule="evenodd" clip-rule="evenodd" d="M12.5021 0.502103C12.8236 0.180612 13.2596 0 13.7143 0H22.2857C22.7404 0 23.1764 0.180612 23.4979 0.502103C23.8194 0.823594 24 1.25963 24 1.71429V10.2857C24 10.7404 23.8194 11.1764 23.4979 11.4979C23.1764 11.8194 22.7404 12 22.2857 12C21.8311 12 21.395 11.8194 21.0735 11.4979C20.752 11.1764 20.5714 10.7404 20.5714 10.2857V5.85257L9.78343 16.6406C9.62529 16.8043 9.43613 16.9349 9.22698 17.0248C9.01783 17.1146 8.79288 17.1619 8.56526 17.1639C8.33764 17.1658 8.1119 17.1225 7.90122 17.0363C7.69054 16.9501 7.49914 16.8228 7.33818 16.6618C7.17722 16.5009 7.04993 16.3095 6.96373 16.0988C6.87754 15.8881 6.83416 15.6624 6.83614 15.4347C6.83812 15.2071 6.88541 14.9822 6.97525 14.773C7.0651 14.5639 7.1957 14.3747 7.35943 14.2166L18.1474 3.42857H13.7143C13.2596 3.42857 12.8236 3.24796 12.5021 2.92647C12.1806 2.60498 12 2.16894 12 1.71429C12 1.25963 12.1806 0.823594 12.5021 0.502103ZM1.0042 4.43277C1.64719 3.78979 2.51926 3.42857 3.42857 3.42857H8.57143C9.02608 3.42857 9.46212 3.60918 9.78361 3.93067C10.1051 4.25216 10.2857 4.6882 10.2857 5.14285C10.2857 5.59751 10.1051 6.03355 9.78361 6.35504C9.46212 6.67653 9.02608 6.85714 8.57143 6.85714H3.42857V20.5714H17.1429V15.4286C17.1429 14.9739 17.3235 14.5379 17.645 14.2164C17.9664 13.8949 18.4025 13.7143 18.8571 13.7143C19.3118 13.7143 19.7478 13.8949 20.0693 14.2164C20.3908 14.5379 20.5714 14.9739 20.5714 15.4286V20.5714C20.5714 21.4807 20.2102 22.3528 19.5672 22.9958C18.9242 23.6388 18.0522 24 17.1429 24H3.42857C2.51926 24 1.64719 23.6388 1.0042 22.9958C0.361223 22.3528 0 21.4807 0 20.5714V6.85714C0 5.94783 0.361223 5.07575 1.0042 4.43277Z" fill="#8A8E95" />
</g>
<defs>
<clipPath id="clip0_42_6">
<rect width="24" height="24" fill="white"/>
</clipPath>
</defs>
</svg>
