<?xml version="1.0" encoding="utf-8"?>
<!-- Generator: Adobe Illustrator 25.4.1, SVG Export Plug-In . SVG Version: 6.00 Build 0)  -->
<svg version="1.1" baseProfile="basic" id="Layer_1"
	 xmlns="http://www.w3.org/2000/svg" xmlns:xlink="http://www.w3.org/1999/xlink" x="0px" y="0px" viewBox="0 0 256 256"
	 xml:space="preserve">
<path fill="#F7931E" d="M93.6,18.4l13.1,46.9c3.5,12.6,13.4,22.5,26,26l46.9,13.1l-46.9,13.1c-12.6,3.5-22.5,13.4-26,26l-13.1,46.9
	l-13.1-46.9c-3.5-12.6-13.4-22.5-26-26L7.6,104.5l46.9-13.1c12.6-3.5,22.5-13.4,26-26L93.6,18.4z"/>
<path fill="#FFEA2E" d="M153.4,158l7,24.9c1.9,6.7,7.1,11.9,13.8,13.8l24.9,7l-24.9,7c-6.7,1.9-11.9,7.1-13.8,13.8l-7,24.9l-7-24.9
	c-1.9-6.7-7.1-11.9-13.8-13.8l-24.9-7l24.9-7c6.7-1.9,11.9-7.1,13.8-13.8L153.4,158z"/>
<path fill="#FFC22E" d="M186.5,6.6l5.6,19.9c1.5,5.4,5.7,9.5,11,11l19.9,5.6l-19.9,5.6c-5.4,1.5-9.5,5.7-11,11l-5.6,19.9l-5.6-19.9
	c-1.5-5.4-5.7-9.5-11-11l-19.9-5.6l19.9-5.6c5.4-1.5,9.5-5.7,11-11L186.5,6.6z"/>
</svg>
